<?xml version="1.0" encoding="utf-8"?>
<!-- Generator: Adobe Illustrator 27.4.0, SVG Export Plug-In . SVG Version: 6.00 Build 0)  -->
<svg version="1.1" id="Layer_1" xmlns="http://www.w3.org/2000/svg" xmlns:xlink="http://www.w3.org/1999/xlink" x="0px" y="0px"
	 viewBox="0 0 48 48" style="enable-background:new 0 0 48 48;" xml:space="preserve">
<style type="text/css">
	.st0{fill:#FFFFFF;stroke:#000000;stroke-miterlimit:10;}
	.st1{fill:none;}
</style>
<path class="st0" d="M38,24h-4v6h-6v4h10V24z M14,18h6v-4H10v10h4V18z M42,6H6c-2.2,0-4,1.8-4,4v28c0,2.2,1.8,4,4,4h36
	c2.2,0,4-1.8,4-4V10C46,7.8,44.2,6,42,6z M42,38H6V10h36V38z"/>
<path class="st1" d="M0,0h48v48H0V0z"/>
</svg>
